<svg xmlns="http://www.w3.org/2000/svg" viewBox="0 -144 936 1008"><path fill="currentColor" d="M936 216v720c0 39-33 72-72 72H72c-39 0-72-33-72-72V216c0-39 33-72 72-72h72V90c0-49 40-90 90-90h36c50 0 90 41 90 90v54h216V90c0-49 40-90 90-90h36c50 0 90 41 90 90v54h72c39 0 72 33 72 72zm-216 36V90c0-10-8-18-18-18h-36c-10 0-18 8-18 18v162c0 10 8 18 18 18h36c10 0 18-8 18-18zm-18 108v162h162V360H702zm-216 0v162h180V360H486zm216 198v180h162V558H702zM288 252V90c0-10-8-18-18-18h-36c-10 0-18 8-18 18v162c0 10 8 18 18 18h36c10 0 18-8 18-18zm198 306v180h180V558H486zm216 216v162h162V774H702zM270 360v162h180V360H270zm216 414v162h180V774H486zM72 360v162h162V360H72zm198 198v180h180V558H270zm-198 0v180h162V558H72zm198 216v162h180V774H270zm-198 0v162h162V774H72z"/></svg>
