<svg xmlns="http://www.w3.org/2000/svg" viewBox="0 -144 1008 1008"><path fill="currentColor" d="M1008 540c0 14-4 27-11 39-103 170-293 285-493 285S114 749 11 579c-7-12-11-25-11-39s4-27 11-39c103-170 293-285 493-285s390 115 493 285c7 12 11 25 11 39zM531 324c0-15-12-27-27-27-94 0-171 77-171 171 0 15 12 27 27 27s27-12 27-27c0-64 53-117 117-117 15 0 27-12 27-27zm405 216c-53-83-127-154-214-199 22 39 34 83 34 127 0 139-113 252-252 252S252 607 252 468c0-44 12-88 34-127-87 45-161 116-214 199 96 148 251 252 432 252s336-104 432-252z"/></svg>
