<svg xmlns="http://www.w3.org/2000/svg" viewBox="0 -144 1008 1008"><path fill="currentColor" d="M508 1008c-217 0-390-127-469-309-89-202-18-525 140-668l-6 158c8-10 68-13 77 0 33-62 138-109 223-111-33 27-107 126-101 176 41 13 104 13 138 15 10 6 8 40-12 68 0 0-27 37-98 50l8 106-78-37c-25 64 36 121 99 110 69-12 94-58 143-55 48 3 68 30 61 55 0 0-7 31-60 26-44 70-103 101-199 93 145 120 341 11 390-88 50-98 7-243-43-284 59 25 99 51 121 108 11-126-47-269-151-353 195 57 314 208 317 448 3 241-213 492-500 492z"/></svg>
