<svg xmlns="http://www.w3.org/2000/svg" viewBox="0 -144 1008 1008"><path fill="currentColor" d="M1008 342v468c0 69-57 126-126 126h-18V216h18c69 0 126 57 126 126zM720 216h90v720H198V216h90v-90c0-30 24-54 54-54h324c30 0 54 24 54 54v90zm-594 0h18v720h-18C57 936 0 879 0 810V342c0-69 57-126 126-126zm234-72v72h288v-72H360zm360 486V522c0-10-8-18-18-18H576V378c0-10-8-18-18-18H450c-10 0-18 8-18 18v126H306c-10 0-18 8-18 18v108c0 10 8 18 18 18h126v126c0 10 8 18 18 18h108c10 0 18-8 18-18V648h126c10 0 18-8 18-18z"/></svg>
