<svg xmlns="http://www.w3.org/2000/svg" viewBox="0 -144 792 1008"><path fill="currentColor" d="M790 779c0 88-67 155-155 155-49 0-97-22-132-57L66 441C26 401 2 345 2 289 2 169 96 74 215 74c58 0 113 23 154 64l340 341c4 3 6 8 6 12 0 12-32 43-43 43-5 0-10-2-13-5L318 187c-27-26-64-43-102-43-80 0-142 65-142 144 0 38 16 75 43 102l437 437c21 21 51 35 81 35 48 0 83-35 83-83 0-31-14-60-35-82L356 371c-9-9-21-14-34-14-21 0-37 16-37 38 0 12 5 24 14 33l230 231c4 3 6 8 6 12 0 12-32 44-44 44-4 0-9-2-12-6L248 479c-22-23-35-53-35-84 0-62 48-110 110-110 31 0 61 13 84 35l327 327c35 35 56 83 56 132z"/></svg>
