<svg xmlns="http://www.w3.org/2000/svg" viewBox="0 -144 936 1008"><path fill="currentColor" d="M900 468c0 30-12 62-31 84 6 18 8 35 9 43 0 28-8 54-25 77 7 20 6 43 0 65-5 21-16 40-30 53 3 42-6 77-28 102-24 29-61 43-110 44h-73c-80 0-156-26-217-47-36-12-69-24-89-25-19-1-36-16-36-36V467c0-18 16-34 34-36 21-1 75-68 100-101 20-26 39-50 57-67 22-22 28-56 35-89 6-33 13-68 37-91 6-7 15-11 25-11 126 0 126 101 126 144 0 46-16 79-31 108-7 12-12 18-17 36h156c59 0 108 49 108 108zm-666 0v360c0 20-16 36-36 36H36c-20 0-36-16-36-36V468c0-20 16-36 36-36h162c20 0 36 16 36 36zm-90 288c0-20-16-36-36-36s-36 16-36 36 16 36 36 36 36-16 36-36z"/></svg>
