<svg xmlns="http://www.w3.org/2000/svg" viewBox="0 -144 864 1008"><path fill="currentColor" d="M864 504c0 238-193 432-432 432S0 742 0 504 193 72 432 72s432 194 432 432zM646 631c0-9-4-18-10-25L534 504l102-102c6-7 10-16 10-25 0-10-4-19-10-26l-51-51c-7-6-16-10-26-10-9 0-18 4-25 10L432 402 330 300c-7-6-16-10-25-10-10 0-19 4-26 10l-51 51c-6 7-10 16-10 26 0 9 4 18 10 25l102 102-102 102c-6 7-10 16-10 25 0 10 4 19 10 26l51 51c7 6 16 10 26 10 9 0 18-4 25-10l102-102 102 102c7 6 16 10 25 10 10 0 19-4 26-10l51-51c6-7 10-16 10-26z"/></svg>
