<svg xmlns="http://www.w3.org/2000/svg" viewBox="0 -144 864 1008"><path fill="currentColor" d="M300 432H131v60h39l93 372h89l72-273c2-8 5-17 6-26 0-4 1-9 1-13h2l2 13c1 8 2 17 5 26l72 273h89l93-372h39v-60H564v60h51l-56 247c-2 9-3 18-4 25l-1 12h-2c0-3-1-8-2-12-1-7-3-16-5-25l-81-307h-64l-81 307c-2 9-3 18-5 25l-2 12h-2l-1-12c-1-7-2-16-4-25l-56-247h51v-60zM72 936h720V360H558c-30 0-54-24-54-54V72H72v864zM576 76v212h212c-4-10-9-19-13-23L599 89c-4-4-13-9-23-13zm74-38l176 176c21 21 38 62 38 92v648c0 30-24 54-54 54H54c-30 0-54-24-54-54V54C0 24 24 0 54 0h504c30 0 71 17 92 38z"/></svg>
