<svg xmlns="http://www.w3.org/2000/svg" viewBox="0 0 10 14"><title>imm-vial</title><g fill="#000" fill-rule="evenodd"><path d="M9.477 5.5c.323.318.523.763.523 1.257v5.486C10 13.213 9.215 14 8.258 14H1.742A1.747 1.747 0 0 1 0 12.243V6.757c0-.493.202-.938.527-1.257L2 4h6l1.477 1.5zM4 8H2.258C2.104 8 2 8.11 2 8.245v1.51a.25.25 0 0 0 .258.245H4v1.742c0 .154.11.258.245.258h1.51A.25.25 0 0 0 6 11.742V10h1.742C7.896 10 8 9.89 8 9.755v-1.51A.25.25 0 0 0 7.742 8H6V6.258C6 6.104 5.89 6 5.755 6h-1.51A.25.25 0 0 0 4 6.258V8z"/><rect x="1" width="8" height="3" rx=".75"/></g></svg>
