<svg xmlns="http://www.w3.org/2000/svg" viewBox="0 -144 1008 1008"><path fill="currentColor" d="M356 462h409c-4-109-100-187-205-187-106 0-201 78-204 187zM72 863c0 65 39 101 103 101 50 0 106-23 150-47-92-54-163-140-198-241-26 54-55 126-55 187zm897-696c0-63-45-102-107-102-48 0-101 19-143 40 91 35 169 100 221 184 14-38 29-83 29-122zm39 360c0 20-1 39-4 59H357c0 111 98 193 206 193 73 0 144-37 181-100h238c-64 181-236 301-427 301-69 0-138-16-200-46-63 32-151 65-222 65C39 999 0 941 0 851c0-52 11-105 25-155 9-32 45-99 62-128 69-126 160-246 267-341-86 37-180 130-240 199C161 220 344 74 555 74c9 0 17 0 26 1C650 43 748 9 824 9c91 0 169 35 169 138 0 54-20 112-42 161 37 67 57 143 57 219z"/></svg>
