<svg xmlns="http://www.w3.org/2000/svg" viewBox="0 -144 1008 1008"><path fill="currentColor" d="M1008 504c0 278-226 504-504 504S0 782 0 504 226 0 504 0s504 226 504 504zm-54 0c0-249-201-450-450-450S54 255 54 504s201 450 450 450 450-201 450-450zm-48 0c0 74-20 146-58 209-6-3-30-20-34-20s-7 3-7 7c0 8 26 21 33 25-56 84-142 145-240 169l-9-37c0-5-4-6-8-6s-7 6-6 9l9 38c-27 5-54 8-82 8-74 0-146-21-209-59 3-5 24-36 24-41 0-4-3-7-7-7-8 0-25 33-30 40-85-56-146-143-169-243l38-8c5-1 6-5 6-9s-6-6-9-5l-38 8c-5-26-8-52-8-78 0-75 21-150 61-213 6 3 33 22 37 22s8-3 8-7c0-8-30-23-37-28 57-83 145-144 244-166l8 38c1 4 5 5 8 5 4 0 7-5 6-9l-8-37c24-4 50-7 75-7 75 0 149 21 213 61-4 6-22 32-22 37 0 4 3 7 7 7 8 0 23-29 27-36 83 56 143 142 166 240l-32 7c-5 1-5 4-5 9 0 4 5 6 8 6l32-8c5 26 8 53 8 79zm-364 31l197-327c-26 25-272 252-279 263L263 798c26-25 273-252 279-263zm-8-33c0 19-13 36-33 36-18 0-36-13-36-32s14-36 33-36c18 0 36 13 36 32z"/></svg>
